<svg xmlns="http://www.w3.org/2000/svg" width="24.63" height="15.394" viewBox="0 0 24.63 15.394">
  <g id="Behance" transform="translate(0 22.896)">
    <g id="Group_272" data-name="Group 272" transform="translate(0 -22.896)">
      <g id="Group_260" data-name="Group 260" transform="translate(0 0)">
        <path id="Path_404" data-name="Path 404" d="M-4.031-5.919a3.653,3.653,0,0,1-1.542.264h-3.7v-4h3.748A3.9,3.9,0,0,1-4-9.4a1.61,1.61,0,0,1,.969,1.612,1.887,1.887,0,0,1-1,1.874m-5.238-9.538h3.314a5.829,5.829,0,0,1,1.8.235,1.346,1.346,0,0,1,.817,1.388,1.413,1.413,0,0,1-.619,1.317,3.1,3.1,0,0,1-1.61.373h-3.7Zm7.1,4.351a3.655,3.655,0,0,0,1.161-.855,3.314,3.314,0,0,0,.7-2.211A3.789,3.789,0,0,0-1-16.464a4.7,4.7,0,0,0-3.945-1.6H-12.3V-3.049h6.859a10.689,10.689,0,0,0,2.15-.2A4.222,4.222,0,0,0-1.575-4,4.164,4.164,0,0,0-.5-5.186,4.331,4.331,0,0,0,.182-7.58a3.939,3.939,0,0,0-.592-2.2,3.416,3.416,0,0,0-1.76-1.325" transform="translate(12.303 18.064)" fill="#3f3d56"/>
      </g>
      <path id="Path_405" data-name="Path 405" d="M29.93-21.854H23.408v1.868H29.93Z" transform="translate(-7.67 22.555)" fill="#3f3d56"/>
      <g id="Group_261" data-name="Group 261" transform="translate(13.465 3.616)">
        <path id="Path_406" data-name="Path 406" d="M-1.478-2.314A3,3,0,0,1-.694-4.033a2.357,2.357,0,0,1,1.757-.635,2.616,2.616,0,0,1,1.748.6,2.429,2.429,0,0,1,.783,1.756ZM5.653-4.9A4.535,4.535,0,0,0,3.709-6.542a6.478,6.478,0,0,0-2.647-.521,5.476,5.476,0,0,0-4.025,1.54A5.974,5.974,0,0,0-4.512-1.1q0,3.078,1.719,4.445A6.174,6.174,0,0,0,1.17,4.714,5.513,5.513,0,0,0,5.4,3.1,3.632,3.632,0,0,0,6.495,1.089h-3a2.415,2.415,0,0,1-.607.764,2.515,2.515,0,0,1-1.632.509A3.017,3.017,0,0,1-.372,1.943,2.655,2.655,0,0,1-1.551-.4h8.2a14.07,14.07,0,0,0-.1-2.2,5.366,5.366,0,0,0-.9-2.3" transform="translate(4.512 7.063)" fill="#3f3d56"/>
      </g>
    </g>
  </g>
</svg>
