<svg xmlns="http://www.w3.org/2000/svg" width="20" height="20" viewBox="0 0 20 20">
  <g id="Dribbble" transform="translate(0 36.675)">
    <g id="Group_271" data-name="Group 271" transform="translate(0 -36.675)">
      <g id="Group_257" data-name="Group 257" transform="translate(0 0)">
        <path id="Path_402" data-name="Path 402" d="M-10.5-8.033c-.061-.146-.121-.293-.185-.44-.177-.419-.369-.833-.568-1.24a10.985,10.985,0,0,0,4.758-3.379A8.5,8.5,0,0,1-4.549-7.753a19.766,19.766,0,0,0-5.948-.28M-8.315-.586a36.882,36.882,0,0,0-1.663-6.1,12.38,12.38,0,0,1,5.322.373A8.541,8.541,0,0,1-8.315-.586M-13.086.873A8.5,8.5,0,0,1-18.418-1l-.11-.087.11.087.082.063a11.573,11.573,0,0,1,6.7-5.335c.019-.007.039-.011.057-.017A35.532,35.532,0,0,1-9.753.2a8.509,8.509,0,0,1-3.334.677m-6.353-2.834a8.508,8.508,0,0,1-2.188-5.708c0-.091,0-.179.007-.269a31.323,31.323,0,0,0,8.768-1.217c.244.479.478.966.693,1.452-.113.031-.225.065-.336.1a13.509,13.509,0,0,0-6.946,5.635s0,0,0,0m2.709-13.429a51.1,51.1,0,0,1,3.172,4.919,31.606,31.606,0,0,1-7.885,1.043,8.541,8.541,0,0,1,4.713-5.963m1.6-.569a.007.007,0,0,1,0,0l-.026,0a.162.162,0,0,0,.027-.007m2.047-.248a8.506,8.506,0,0,1,5.64,2.132,9.3,9.3,0,0,1-4.462,3.091A43.455,43.455,0,0,0-15.1-15.967a8.533,8.533,0,0,1,2.013-.241m9.212,4.647a9.875,9.875,0,0,0-.922-1.7,9.993,9.993,0,0,0-1.219-1.479A10.015,10.015,0,0,0-7.5-15.958a9.953,9.953,0,0,0-1.7-.923,10.024,10.024,0,0,0-1.879-.582,10.023,10.023,0,0,0-2.013-.2,10.027,10.027,0,0,0-2.014.2,10.024,10.024,0,0,0-1.879.582,10.03,10.03,0,0,0-1.7.923,10.087,10.087,0,0,0-1.479,1.22,10.1,10.1,0,0,0-1.22,1.479,9.873,9.873,0,0,0-.922,1.7,9.969,9.969,0,0,0-.585,1.88,10.082,10.082,0,0,0-.2,2.012,10.108,10.108,0,0,0,.2,2.016A9.941,9.941,0,0,0-22.3-3.775a9.887,9.887,0,0,0,.922,1.7A10.187,10.187,0,0,0-20.159-.6,10.22,10.22,0,0,0-18.68.623a10.024,10.024,0,0,0,1.7.922,9.866,9.866,0,0,0,1.879.582,9.948,9.948,0,0,0,2.014.2,9.944,9.944,0,0,0,2.013-.2,9.866,9.866,0,0,0,1.879-.582A9.948,9.948,0,0,0-7.5.623,10.146,10.146,0,0,0-6.015-.6,10.078,10.078,0,0,0-4.8-2.075a9.89,9.89,0,0,0,.922-1.7,10.02,10.02,0,0,0,.585-1.878,10.108,10.108,0,0,0,.2-2.016,10.082,10.082,0,0,0-.2-2.012,10.049,10.049,0,0,0-.585-1.88" transform="translate(23.087 17.668)" fill="#3f3d56"/>
      </g>
    </g>
  </g>
</svg>
