<svg xmlns="http://www.w3.org/2000/svg" width="17.298" height="15.726" viewBox="0 0 17.298 15.726">
  <g id="Linkedin" transform="translate(0 33.537)">
    <path id="Path_408" data-name="Path 408" d="M.931-12.1H4.3V-22.783H.931Z" transform="translate(-0.494 -5.711)" fill="#3f3d56"/>
    <g id="Group_273" data-name="Group 273" transform="translate(0 -33.537)">
      <g id="Group_264" data-name="Group 264" transform="translate(5.866 4.94)">
        <path id="Path_409" data-name="Path 409" d="M-8.1,0a3.463,3.463,0,0,0-3.365,1.779V.1h-3.788c.049.89,0,10.683,0,10.683h3.788V5a2.437,2.437,0,0,1,.082-.873A1.93,1.93,0,0,1-9.559,2.822c1.315,0,1.913.988,1.913,2.435v5.528h3.823V4.845C-3.823,1.537-5.706,0-8.1,0" transform="translate(15.255)" fill="#3f3d56"/>
      </g>
      <g id="Group_265" data-name="Group 265" transform="translate(0 0)">
        <path id="Path_410" data-name="Path 410" d="M-2.333,0A1.883,1.883,0,0,0-4.392,1.855,1.864,1.864,0,0,0-2.38,3.707h.024A1.879,1.879,0,0,0-.3,1.852,1.872,1.872,0,0,0-2.333,0" transform="translate(4.392)" fill="#3f3d56"/>
      </g>
    </g>
  </g>
</svg>
