<svg xmlns="http://www.w3.org/2000/svg" width="244.938" height="316.354" viewBox="0 0 244.938 316.354">
  <g id="Left_Leaves" data-name="Left Leaves" transform="translate(122.455 -635.697)">
    <g id="Group_11" data-name="Group 11" transform="matrix(0.966, -0.259, 0.259, 0.966, -122.455, 765.782)" opacity="0.8">
      <path id="Path_202" data-name="Path 202" d="M926.908,168.76S916.236,164.416,882.333,180s-38.058,13.6-46.841,11.238-13.694-2.928-23.043-15.96c0,0-6.611-35.981-13.032-41.553s-33.809,3.211-33.809,3.211-32.675,7.555-39-36.17c0,0,4.439-32.959-1.605-43.064,0,0,12.182,5.289,32.2-3.211s36.075,9.16,36.075,9.16,5.1,13.127,4.533,20.871,2.645,10.766,12.277,6.988c0,0,4.722-6.705-1.983-17.754S796.678,54.491,798.567,45.9s7.177-20.493,24.365-26.443,40.513-7.083,51.657-11.71S888.66,0,888.66,0s-6.894,6.894,9.349,36.17,5.855,41.93,5.855,41.93-8.594,20.587-46.746,18.888c0,0-36.737,1.322-16.716,16.9,0,0,12.844-2.644,32.015-8.688s32.959,19.076,36.453,36.547C912.27,159.222,926.908,168.76,926.908,168.76Z" transform="translate(-725)" fill="#38d39f"/>
      <path id="Path_203" data-name="Path 203" d="M884.792,23.394l.189-.094c1.511,5.572-14.921,28.048-28.992,45.8l-.189-.094C875.726,43.982,886.02,27.739,884.792,23.394Z" transform="translate(-732.276 -1.296)" fill="#444053"/>
      <path id="Path_204" data-name="Path 204" d="M853.853,71.4l.094.189c-11.238,14.26-25.309,31.259-36.548,43.819-1.038,1.228-2.172,2.455-3.116,3.777L814,118.9c1.039-1.322,2.078-2.55,3.211-3.778C828.354,102.564,842.709,85.66,853.853,71.4Z" transform="translate(-729.95 -3.971)" fill="#444053"/>
      <path id="Path_205" data-name="Path 205" d="M812.665,121.4l.189.378c-20.493,25.593-21.91,65.351-21.91,65.729L786.6,182.6C786.694,182.124,791.983,147.182,812.665,121.4Z" transform="translate(-728.426 -6.753)" fill="#444053"/>
      <path id="Path_206" data-name="Path 206" d="M904.2,159.061s-24.176-12.56-43.064-8.027-61.29-15.96-61.29-15.96-18.037-7.366-21.626-15.677c0,0-12.371-13.127-13.032-19.832S752.438,75.767,744.6,75.2" transform="translate(-726.09 -4.183)" fill="none" stroke="#444053" stroke-miterlimit="10" stroke-width="1"/>
      <path id="Path_207" data-name="Path 207" d="M909.259,175.754S897.077,167.538,898.493,158" transform="translate(-734.644 -8.788)" fill="none" stroke="#444053" stroke-miterlimit="10" stroke-width="1"/>
      <path id="Path_208" data-name="Path 208" d="M888.971,186.264S871.5,179.937,869.8,155.1" transform="translate(-733.054 -8.627)" fill="none" stroke="#444053" stroke-miterlimit="10" stroke-width="1"/>
      <path id="Path_209" data-name="Path 209" d="M859.578,192.664s-16.621-13.788-11.143-37.964" transform="translate(-731.804 -8.605)" fill="none" stroke="#444053" stroke-miterlimit="10" stroke-width="1"/>
      <path id="Path_210" data-name="Path 210" d="M824.188,185.442S813.139,162.21,822.96,147.1" transform="translate(-730.222 -8.182)" fill="none" stroke="#444053" stroke-miterlimit="10" stroke-width="1"/>
      <path id="Path_211" data-name="Path 211" d="M913.295,147.8s-12.56,3.966-9.916,10.671" transform="translate(-734.901 -8.221)" fill="none" stroke="#444053" stroke-miterlimit="10" stroke-width="1"/>
      <path id="Path_212" data-name="Path 212" d="M896.782,123.6s-16.9,5.383-17.282,29.181" transform="translate(-733.594 -6.875)" fill="none" stroke="#444053" stroke-miterlimit="10" stroke-width="1"/>
      <path id="Path_213" data-name="Path 213" d="M872.057,117.7s-15.393,18.982-14.26,36.17" transform="translate(-732.383 -6.547)" fill="none" stroke="#444053" stroke-miterlimit="10" stroke-width="1"/>
      <path id="Path_214" data-name="Path 214" d="M843.605,125.6s-15.3,14.543-13.316,22.665" transform="translate(-730.847 -6.986)" fill="none" stroke="#444053" stroke-miterlimit="10" stroke-width="1"/>
      <path id="Path_215" data-name="Path 215" d="M833.738,120.072s-14.26,2.55-16.338-2.172" transform="translate(-730.139 -6.558)" fill="none" stroke="#444053" stroke-miterlimit="10" stroke-width="1"/>
      <path id="Path_216" data-name="Path 216" d="M815,101.9s7.272,9.538,9.066,7.461" transform="translate(-730.006 -5.668)" fill="none" stroke="#444053" stroke-miterlimit="10" stroke-width="1"/>
      <path id="Path_217" data-name="Path 217" d="M888.2,95.016S852.122,97.66,844,86.8" transform="translate(-731.619 -4.828)" fill="none" stroke="#444053" stroke-miterlimit="10" stroke-width="1"/>
      <path id="Path_218" data-name="Path 218" d="M807,50.8s16.9,36.264,29.182,40.892" transform="translate(-729.561 -2.826)" fill="none" stroke="#444053" stroke-miterlimit="10" stroke-width="1"/>
      <path id="Path_219" data-name="Path 219" d="M825.8,32.5s10.388,33.337,23.232,43.819" transform="translate(-730.607 -1.808)" fill="none" stroke="#444053" stroke-miterlimit="10" stroke-width="1"/>
      <path id="Path_220" data-name="Path 220" d="M904.319,66.294S876.932,78,860.5,66.2" transform="translate(-732.537 -3.682)" fill="none" stroke="#444053" stroke-miterlimit="10" stroke-width="0.75"/>
      <path id="Path_221" data-name="Path 221" d="M851.6,25s6.233,24.554,14.732,30.5" transform="translate(-732.042 -1.391)" fill="none" stroke="#444053" stroke-miterlimit="10" stroke-width="0.75"/>
      <path id="Path_222" data-name="Path 222" d="M901.254,37.2s-15.393,5.855-21.154,1.322" transform="translate(-733.627 -2.069)" fill="none" stroke="#444053" stroke-miterlimit="10" stroke-width="0.75"/>
      <path id="Path_223" data-name="Path 223" d="M800.655,110.4s0,21.437-5.855,22.948" transform="translate(-728.883 -6.141)" fill="none" stroke="#444053" stroke-miterlimit="10" stroke-width="1"/>
      <path id="Path_224" data-name="Path 224" d="M750.6,139.116s23.137,1.983,33.809-9.916" transform="translate(-726.424 -7.186)" fill="none" stroke="#444053" stroke-miterlimit="10" stroke-width="1"/>
      <path id="Path_225" data-name="Path 225" d="M793.459,83.6s-5.572,21.721-21.059,27.576" transform="translate(-727.637 -4.65)" fill="none" stroke="#444053" stroke-miterlimit="10" stroke-width="1"/>
      <path id="Path_226" data-name="Path 226" d="M735.9,114.983s16.338,5.666,30.5-8.783" transform="translate(-725.606 -5.907)" fill="none" stroke="#444053" stroke-miterlimit="10" stroke-width="1"/>
      <path id="Path_227" data-name="Path 227" d="M774.716,63.8S773.2,82.215,763.1,90.809" transform="translate(-727.119 -3.549)" fill="none" stroke="#444053" stroke-miterlimit="10" stroke-width="1"/>
      <path id="Path_228" data-name="Path 228" d="M736.6,85.544s13.6.094,16.81-4.344" transform="translate(-725.645 -4.517)" fill="none" stroke="#444053" stroke-miterlimit="10" stroke-width="1"/>
    </g>
    <g id="abffebd3-2ac6-4c6b-a0d4-e62621854ed7_1_" transform="translate(18.455 622.126) rotate(57)" opacity="0.6">
      <path id="Path_114" data-name="Path 114" d="M200.062,190.69s-14.636-25.92-36.67-33.371a45.137,45.137,0,0,1-22.833-17.085A79.4,79.4,0,0,1,133.8,128.1" transform="translate(-118.033 -87.416)" fill="none" stroke="#535461" stroke-miterlimit="10" stroke-width="2"/>
      <path id="Path_115" data-name="Path 115" d="M106.158,109.452c2.5,2.448,14.21,4.95,14.21,4.95s-2.874-11.6-5.376-14.051a6.323,6.323,0,1,0-8.941,8.941c0,.053.053.106.106.16Z" transform="translate(-104.175 -73.558)" fill="#38d39f"/>
      <path id="Path_116" data-name="Path 116" d="M115.824,147.544c3.406.692,14.636-3.566,14.636-3.566s-8.729-8.2-12.135-8.888a6.344,6.344,0,0,0-7.451,5,6.243,6.243,0,0,0,4.95,7.451Z" transform="translate(-107.242 -90.627)" fill="#38d39f"/>
      <path id="Path_117" data-name="Path 117" d="M158.094,190.534c3.3-1.118,10.8-10.432,10.8-10.432s-11.656-2.661-14.956-1.543a6.337,6.337,0,1,0,4.151,11.975Z" transform="translate(-125.455 -110.891)" fill="#38d39f"/>
      <path id="Path_118" data-name="Path 118" d="M200.559,214.87c3.459-.585,12.454-8.462,12.454-8.462S202,201.83,198.537,202.362a6.335,6.335,0,0,0,2.022,12.507Z" transform="translate(-145.833 -122.133)" fill="#38d39f"/>
      <path id="Path_119" data-name="Path 119" d="M154.967,129.333c0,3.513-6.333,13.625-6.333,13.625s-6.334-10.112-6.334-13.625a6.334,6.334,0,0,1,12.667,0Z" transform="translate(-122.009 -85.03)" fill="#38d39f"/>
      <path id="Path_120" data-name="Path 120" d="M203.483,157.067c-1.064,3.353-10.112,11.124-10.112,11.124s-3.034-11.6-1.969-14.9a6.329,6.329,0,0,1,12.082,3.779Z" transform="translate(-144.871 -97.116)" fill="#38d39f"/>
      <path id="Path_121" data-name="Path 121" d="M246.132,192.979c-.479,3.459-8.09,12.667-8.09,12.667s-4.95-10.911-4.471-14.37a6.338,6.338,0,1,1,12.561,1.7Z" transform="translate(-164.688 -114.4)" fill="#38d39f"/>
      <path id="Path_122" data-name="Path 122" d="M106.158,109.452c2.5,2.448,14.21,4.95,14.21,4.95s-2.874-11.6-5.376-14.051a6.323,6.323,0,1,0-8.941,8.941c0,.053.053.106.106.16Z" transform="translate(-104.175 -73.558)" opacity="0.25"/>
      <path id="Path_123" data-name="Path 123" d="M115.824,147.544c3.406.692,14.636-3.566,14.636-3.566s-8.729-8.2-12.135-8.888a6.344,6.344,0,0,0-7.451,5,6.243,6.243,0,0,0,4.95,7.451Z" transform="translate(-107.242 -90.627)" opacity="0.25"/>
      <path id="Path_124" data-name="Path 124" d="M158.094,190.534c3.3-1.118,10.8-10.432,10.8-10.432s-11.656-2.661-14.956-1.543a6.337,6.337,0,1,0,4.151,11.975Z" transform="translate(-125.455 -110.891)" opacity="0.25"/>
      <path id="Path_125" data-name="Path 125" d="M200.559,214.87c3.459-.585,12.454-8.462,12.454-8.462S202,201.83,198.537,202.362a6.335,6.335,0,0,0,2.022,12.507Z" transform="translate(-145.833 -122.133)" opacity="0.25"/>
      <path id="Path_126" data-name="Path 126" d="M154.967,129.333c0,3.513-6.333,13.625-6.333,13.625s-6.334-10.112-6.334-13.625a6.334,6.334,0,0,1,12.667,0Z" transform="translate(-122.009 -85.03)" opacity="0.25"/>
      <path id="Path_127" data-name="Path 127" d="M203.483,157.067c-1.064,3.353-10.112,11.124-10.112,11.124s-3.034-11.6-1.969-14.9a6.329,6.329,0,0,1,12.082,3.779Z" transform="translate(-144.871 -97.116)" opacity="0.25"/>
      <path id="Path_128" data-name="Path 128" d="M246.132,192.979c-.479,3.459-8.09,12.667-8.09,12.667s-4.95-10.911-4.471-14.37a6.338,6.338,0,1,1,12.561,1.7Z" transform="translate(-164.688 -114.4)" opacity="0.25"/>
      <path id="Path_129" data-name="Path 129" d="M225.834,170.939s-2.874-29.645-20.012-45.4a44.7,44.7,0,0,1-13.944-24.855A75.068,75.068,0,0,1,190.6,86.9" transform="translate(-144.602 -68.144)" fill="none" stroke="#535461" stroke-miterlimit="10" stroke-width="2"/>
      <path id="Path_130" data-name="Path 130" d="M170.087,60.356c1.331,3.247,10.964,10.272,10.964,10.272s2.076-11.762.8-15.009a6.34,6.34,0,1,0-11.762,4.737Z" transform="translate(-134.787 -51.659)" fill="#38d39f"/>
      <path id="Path_131" data-name="Path 131" d="M163.524,99.059c2.874,2.022,14.8,2.661,14.8,2.661s-4.63-11.017-7.5-13.04a6.342,6.342,0,0,0-7.292,10.378Z" transform="translate(-130.673 -68.434)" fill="#38d39f"/>
      <path id="Path_132" data-name="Path 132" d="M184.785,155.391c3.46.266,14.1-5.163,14.1-5.163s-9.58-7.132-13.04-7.451a6.329,6.329,0,1,0-1.064,12.614Z" transform="translate(-139.159 -94.269)" fill="#38d39f"/>
      <path id="Path_133" data-name="Path 133" d="M213.474,194.831c3.406.852,14.8-2.714,14.8-2.714s-8.25-8.675-11.6-9.58a6.329,6.329,0,0,0-3.779,12.082,4.043,4.043,0,0,1,.586.213Z" transform="translate(-152.946 -112.74)" fill="#38d39f"/>
      <path id="Path_134" data-name="Path 134" d="M206.6,98.147c-1.437,3.193-11.337,9.9-11.337,9.9s-1.7-11.815-.266-15.062a6.35,6.35,0,1,1,11.6,5.163Z" transform="translate(-146.388 -69.225)" fill="#38d39f"/>
      <path id="Path_135" data-name="Path 135" d="M237.385,143.173c-2.289,2.608-13.785,6.067-13.785,6.067s1.916-11.815,4.258-14.423a6.336,6.336,0,1,1,9.527,8.356Z" transform="translate(-160.039 -89.555)" fill="#38d39f"/>
      <path id="Path_136" data-name="Path 136" d="M263.506,193.29c-1.81,2.98-12.507,8.3-12.507,8.3s-.106-11.975,1.756-14.956a6.322,6.322,0,1,1,10.751,6.653Z" transform="translate(-172.855 -113.381)" fill="#38d39f"/>
    </g>
  </g>
</svg>
